<?xml version="1.0" standalone="no"?><svg xmlns:xlink="http://www.w3.org/1999/xlink" xmlns="http://www.w3.org/2000/svg" viewBox="0 0 1000 583.3358463255029" preserveAspectRatio="xMaxYMax slice"><g transform="scale(1.206236241367872)"><rect x="0" y="0" width="829.0285714285715" height="483.6" fill="#ffffff"/><rect x="0" y="0" width="69.09" height="69.09" fill="#1478be"/><polygon points="69.09,0 69.09,69.09 0,69.09" fill="#539cd0"/><rect x="69.09" y="0" width="69.09" height="69.09" fill="#78b1da"/><polygon points="69.09,0 138.18,0 69.09,69.09" fill="#3a8ec9"/><rect x="138.17142857142858" y="0" width="69.08571428571429" height="69.08571428571429" fill="#ffffff"/><rect x="138.17" y="0" width="34.54" height="34.54" fill="#72aed8"/><path d="M 138.17 0 A 34.54 34.54 0 0 1 172.70999999999998 34.54 L 138.17 34.54" fill="#fff3c2"/><rect x="172.71" y="0" width="34.54" height="34.54" fill="#ffe682"/><path d="M 172.71 34.54 A 34.54 34.54 0 0 1  207.25 0 L 207.25 34.54" fill="#fffdf3"/><rect x="138.17" y="34.54" width="34.54" height="34.54" fill="#ffe57c"/><path d="M 138.17 69.08 A 34.54 34.54 0 0 0 172.70999999999998 34.54 L 138.17 34.54" fill="#579fd1"/><rect x="172.71" y="34.54" width="34.54" height="34.54" fill="#a2c9e5"/><path d="M 172.71 34.54 A 34.54 34.54 0 0 0 207.25 69.08 L 207.25 34.54" fill="#fff1b7"/><rect x="207.26" y="0" width="69.09" height="69.09" fill="#2280c2"/><polygon points="207.26,0 276.35,0 207.26,69.09" fill="#8dbee0"/><rect x="276.34" y="0" width="69.09" height="69.09" fill="#ffe57e"/><rect x="276.34" y="0" width="69.09" height="69.09" fill="#529bcf"/><rect x="345.42857142857144" y="0" width="69.08571428571429" height="69.08571428571429" fill="#ffffff"/><rect x="345.43" y="0" width="34.54" height="34.54" fill="#ffd220"/><polygon points="379.97,0 379.97,34.54 345.43,34.54" fill="#ffe062"/><rect x="379.97" y="0" width="34.54" height="34.54" fill="#ffdd56"/><polygon points="379.97,0 414.51000000000005,0 379.97,34.54" fill="#fff3c3"/><rect x="345.43" y="34.54" width="34.54" height="34.54" fill="#4f9acf"/><polygon points="345.43,34.54 379.97,34.54 379.97,69.08" fill="#77b1da"/><rect x="379.97" y="34.54" width="34.54" height="34.54" fill="#a0c9e5"/><polygon points="379.97,34.54 414.51000000000005,69.08 379.97,69.08" fill="#cae0f0"/><rect x="414.51428571428573" y="0" width="69.08571428571429" height="69.08571428571429" fill="#ffffff"/><rect x="414.51" y="0" width="34.54" height="34.54" fill="#7ab3da"/><path d="M 414.51 34.54 A 34.54 34.54 0 0 0 449.05 0 L 414.51 0" fill="#96c3e2"/><rect x="449.06" y="0" width="34.54" height="34.54" fill="#ffe062"/><path d="M 449.06 0 A 34.54 34.54 0 0 0 483.6 34.54 L 483.6 0" fill="#bed9ed"/><rect x="414.51" y="34.54" width="34.54" height="34.54" fill="#ffd325"/><path d="M 414.51 34.54 A 34.54 34.54 0 0 1 449.05 69.08 L 414.51 69.08" fill="#1c7dc1"/><rect x="449.06" y="34.54" width="34.54" height="34.54" fill="#ffd118"/><path d="M 449.06 69.08 A 34.54 34.54 0 0 1  483.6 34.54 L 483.6 69.08" fill="#e6f1f8"/><rect x="483.6" y="0" width="69.08571428571429" height="69.08571428571429" fill="#ffffff"/><rect x="483.6" y="0" width="34.54" height="34.54" fill="#fffbea"/><polygon points="518.14,0 518.14,34.54 483.6,34.54" fill="#ffdd55"/><rect x="518.14" y="0" width="34.54" height="34.54" fill="#9ec7e4"/><polygon points="518.14,0 552.68,34.54 518.14,34.54" fill="#2481c3"/><rect x="483.6" y="34.54" width="34.54" height="34.54" fill="#96c3e2"/><polygon points="483.6,34.54 518.14,34.54 483.6,69.08" fill="#ffdf60"/><rect x="518.14" y="34.54" width="34.54" height="34.54" fill="#ffdc50"/><polygon points="518.14,34.54 552.68,34.54 552.68,69.08" fill="#67a7d5"/><rect x="552.69" y="0" width="69.09" height="69.09" fill="#ffcf0d"/><rect x="552.69" y="0" width="69.09" height="69.09" fill="#fff6d4"/><rect x="621.7714285714286" y="0" width="69.08571428571429" height="69.08571428571429" fill="#ffffff"/><rect x="621.77" y="0" width="34.54" height="34.54" fill="#97c3e2"/><circle cx="639.04" cy="17.27" r="17.27" fill="#ffeea8"/><rect x="656.31" y="0" width="34.54" height="34.54" fill="#ffeb9d"/><rect x="656.31" y="0" width="34.54" height="34.54" fill="#4896cd"/><rect x="621.77" y="34.54" width="34.54" height="34.54" fill="#fffefc"/><circle cx="639.04" cy="51.81" r="17.27" fill="#e1eef7"/><rect x="656.31" y="34.54" width="34.54" height="34.54" fill="#fff6d1"/><rect x="656.31" y="34.54" width="34.54" height="34.54" fill="#ffce0b"/><rect x="690.86" y="0" width="69.09" height="69.09" fill="#9bc5e3"/><rect x="690.86" y="0" width="69.09" height="69.09" fill="#bcd8ed"/><rect x="759.94" y="0" width="69.09" height="69.09" fill="#fff0b6"/><path d="M 759.94 69.09 A 69.09 69.09 0 0 0 829.0300000000001 0 L 759.94 0" fill="#fff3c5"/><rect x="0" y="69.08571428571429" width="69.08571428571429" height="69.08571428571429" fill="#ffffff"/><rect x="0" y="69.09" width="34.54" height="34.54" fill="#ffd83e"/><polygon points="34.54,69.09 34.54,103.63 0,103.63" fill="#5ca1d2"/><rect x="34.54" y="69.09" width="34.54" height="34.54" fill="#fff1b7"/><polygon points="34.54,69.09 69.08,103.63 34.54,103.63" fill="#ffe169"/><rect x="0" y="103.63" width="34.54" height="34.54" fill="#5ba1d2"/><polygon points="0,103.63 34.54,103.63 0,138.17" fill="#ffeeac"/><rect x="34.54" y="103.63" width="34.54" height="34.54" fill="#eaf3f9"/><polygon points="34.54,103.63 69.08,103.63 69.08,138.17" fill="#fff4ca"/><rect x="69.09" y="69.09" width="69.09" height="69.09" fill="#66a7d5"/><path d="M 69.09 69.09 A 69.09 69.09 0 0 1 138.18 138.18 L 69.09 138.18" fill="#ffe991"/><rect x="138.17142857142858" y="69.08571428571429" width="69.08571428571429" height="69.08571428571429" fill="#ffffff"/><rect x="138.17" y="69.09" width="34.54" height="34.54" fill="#ffd93f"/><path d="M 138.17 103.63 A 34.54 34.54 0 0 1 172.70999999999998 69.09 L 172.70999999999998 77.72500000000001 A 25.905 25.905 0 0 0 146.80499999999998 103.63" fill="#ffdd55"/><rect x="172.71" y="69.09" width="34.54" height="34.54" fill="#ffd52c"/><path d="M 172.71 69.09 A 34.54 34.54 0 0 1 207.25 103.63 L 198.615 103.63 A 25.905 25.905 0 0 0 172.71 77.72500000000001" fill="#eef5fa"/><rect x="138.17" y="103.63" width="34.54" height="34.54" fill="#ffce08"/><path d="M 138.17 103.63 A 34.54 34.54 0 0 0 172.70999999999998 138.17 L 172.70999999999998 129.535 A 25.905 25.905 0 0 1 146.80499999999998 103.63" fill="#ffe167"/><rect x="172.71" y="103.63" width="34.54" height="34.54" fill="#ffe57d"/><path d="M 172.71 138.17 A 34.54 34.54 0 0 0 207.25 103.63 L 198.615 103.63 A 25.905 25.905 0 0 1 172.71 129.535" fill="#5fa3d3"/><rect x="207.25714285714287" y="69.08571428571429" width="69.08571428571429" height="69.08571428571429" fill="#ffffff"/><rect x="207.26" y="69.09" width="34.54" height="34.54" fill="#2d86c5"/><path d="M 207.26 103.63 A 34.54 34.54 0 0 0 241.79999999999998 69.09 L 207.26 69.09" fill="#ffe990"/><rect x="241.8" y="69.09" width="34.54" height="34.54" fill="#a4cbe6"/><path d="M 241.8 69.09 A 34.54 34.54 0 0 0 276.34000000000003 103.63 L 276.34000000000003 69.09" fill="#71add8"/><rect x="207.26" y="103.63" width="34.54" height="34.54" fill="#fff8de"/><path d="M 207.26 103.63 A 34.54 34.54 0 0 1 241.79999999999998 138.17 L 207.26 138.17" fill="#7db4db"/><rect x="241.8" y="103.63" width="34.54" height="34.54" fill="#ffe991"/><path d="M 241.8 138.17 A 34.54 34.54 0 0 1  276.34000000000003 103.63 L 276.34000000000003 138.17" fill="#75afd9"/><rect x="276.34285714285716" y="69.08571428571429" width="69.08571428571429" height="69.08571428571429" fill="#ffffff"/><rect x="276.34" y="69.09" width="34.54" height="34.54" fill="#ffd83e"/><path d="M 276.34 69.09 A 34.54 34.54 0 0 0 310.88 103.63 L 310.88 69.09" fill="#559dd0"/><rect x="310.89" y="69.09" width="34.54" height="34.54" fill="#ffdb4b"/><path d="M 310.89 103.63 A 34.54 34.54 0 0 0 345.43 69.09 L 310.89 69.09" fill="#7cb4db"/><rect x="276.34" y="103.63" width="34.54" height="34.54" fill="#e9f3f9"/><path d="M 276.34 138.17 A 34.54 34.54 0 0 1  310.88 103.63 L 310.88 138.17" fill="#90bfe0"/><rect x="310.89" y="103.63" width="34.54" height="34.54" fill="#589fd1"/><path d="M 310.89 103.63 A 34.54 34.54 0 0 1 345.43 138.17 L 310.89 138.17" fill="#d3e6f3"/><rect x="345.43" y="69.09" width="69.09" height="69.09" fill="#fff5cc"/><polygon points="345.43,69.09 414.52,138.18 345.43,138.18" fill="#eef5fa"/><rect x="414.51" y="69.09" width="69.09" height="69.09" fill="#fff9e2"/><path d="M 414.51 69.09 A 69.09 69.09 0 0 1  483.6 138.18 L 414.51 69.09 A 69.09 69.09 0 0 0 483.6 138.18" fill="#daeaf5"/><rect x="483.6" y="69.08571428571429" width="69.08571428571429" height="69.08571428571429" fill="#ffffff"/><rect x="483.6" y="69.09" width="34.54" height="34.54" fill="#6aaad6"/><path d="M 483.6 69.09 A 34.54 34.54 0 0 0 518.14 103.63 L 518.14 69.09" fill="#ffe375"/><rect x="518.14" y="69.09" width="34.54" height="34.54" fill="#ffe57d"/><path d="M 518.14 103.63 A 34.54 34.54 0 0 0 552.68 69.09 L 518.14 69.09" fill="#afd1e9"/><rect x="483.6" y="103.63" width="34.54" height="34.54" fill="#fff3c5"/><path d="M 483.6 138.17 A 34.54 34.54 0 0 1  518.14 103.63 L 518.14 138.17" fill="#cde2f1"/><rect x="518.14" y="103.63" width="34.54" height="34.54" fill="#fffefb"/><path d="M 518.14 103.63 A 34.54 34.54 0 0 1 552.68 138.17 L 518.14 138.17" fill="#2682c3"/><rect x="552.6857142857143" y="69.08571428571429" width="69.08571428571429" height="69.08571428571429" fill="#ffffff"/><rect x="552.69" y="69.09" width="34.54" height="34.54" fill="#ffe26d"/><path d="M 552.69 103.63 A 34.54 34.54 0 0 0 587.23 69.09 L 552.69 69.09" fill="#4d99ce"/><rect x="587.23" y="69.09" width="34.54" height="34.54" fill="#d0e4f2"/><path d="M 587.23 69.09 A 34.54 34.54 0 0 0 621.77 103.63 L 621.77 69.09" fill="#2c86c5"/><rect x="552.69" y="103.63" width="34.54" height="34.54" fill="#7db4db"/><path d="M 552.69 103.63 A 34.54 34.54 0 0 1 587.23 138.17 L 552.69 138.17" fill="#4393cb"/><rect x="587.23" y="103.63" width="34.54" height="34.54" fill="#fff2c0"/><path d="M 587.23 138.17 A 34.54 34.54 0 0 1  621.77 103.63 L 621.77 138.17" fill="#bcd8ed"/><rect x="621.77" y="69.09" width="69.09" height="69.09" fill="#fff2c0"/><rect x="621.77" y="69.09" width="69.09" height="69.09" fill="#ffe063"/><rect x="690.86" y="69.09" width="69.09" height="69.09" fill="#fbfdfe"/><path d="M 690.86 138.18 A 69.09 69.09 0 0 0 759.95 69.09 L 690.86 69.09" fill="#ffe065"/><rect x="759.9428571428572" y="69.08571428571429" width="69.08571428571429" height="69.08571428571429" fill="#ffffff"/><rect x="759.94" y="69.09" width="34.54" height="34.54" fill="#3b8fc9"/><polygon points="794.48,69.09 794.48,103.63 759.94,103.63" fill="#ffeda6"/><rect x="794.49" y="69.09" width="34.54" height="34.54" fill="#ffdc51"/><polygon points="794.49,69.09 829.03,103.63 794.49,103.63" fill="#ffe26f"/><rect x="759.94" y="103.63" width="34.54" height="34.54" fill="#ffcd03"/><polygon points="759.94,103.63 794.48,103.63 794.48,138.17" fill="#76b0d9"/><rect x="794.49" y="103.63" width="34.54" height="34.54" fill="#ffce0b"/><polygon points="794.49,103.63 829.03,103.63 794.49,138.17" fill="#fff7d8"/><rect x="0" y="138.17" width="69.09" height="69.09" fill="#c3dcee"/><rect x="0" y="138.17" width="69.09" height="69.09" fill="#c0dbee"/><rect x="69.08571428571429" y="138.17142857142858" width="69.08571428571429" height="69.08571428571429" fill="#ffffff"/><rect x="69.09" y="138.17" width="34.54" height="34.54" fill="#90bfe1"/><path d="M 69.09 138.17 A 34.54 34.54 0 0 0 103.63 172.70999999999998 L 103.63 138.17" fill="#feffff"/><rect x="103.63" y="138.17" width="34.54" height="34.54" fill="#fbfcfe"/><path d="M 103.63 172.70999999999998 A 34.54 34.54 0 0 0 138.17 138.17 L 103.63 138.17" fill="#accfe8"/><rect x="69.09" y="172.71" width="34.54" height="34.54" fill="#92c0e1"/><path d="M 69.09 207.25 A 34.54 34.54 0 0 1  103.63 172.71 L 103.63 207.25" fill="#ffd52b"/><rect x="103.63" y="172.71" width="34.54" height="34.54" fill="#fff6d2"/><path d="M 103.63 172.71 A 34.54 34.54 0 0 1 138.17 207.25 L 103.63 207.25" fill="#ffe26e"/><rect x="138.17" y="138.17" width="69.09" height="69.09" fill="#ffe26e"/><polygon points="207.26,138.17 207.26,207.26 138.17,207.26" fill="#ffda48"/><rect x="207.26" y="138.17" width="69.09" height="69.09" fill="#ffe167"/><path d="M 207.26 207.26 A 69.09 69.09 0 0 1  276.35 138.17 L 276.35 207.26" fill="#fff8da"/><rect x="276.34285714285716" y="138.17142857142858" width="69.08571428571429" height="69.08571428571429" fill="#ffffff"/><rect x="276.34" y="138.17" width="34.54" height="34.54" fill="#7ab2da"/><circle cx="293.60999999999996" cy="155.44" r="17.27" fill="#187ac0"/><rect x="310.89" y="138.17" width="34.54" height="34.54" fill="#70add8"/><rect x="310.89" y="138.17" width="34.54" height="34.54" fill="#d3e5f3"/><rect x="276.34" y="172.71" width="34.54" height="34.54" fill="#7db4db"/><circle cx="293.60999999999996" cy="189.98000000000002" r="17.27" fill="#8dbee0"/><rect x="310.89" y="172.71" width="34.54" height="34.54" fill="#b6d5eb"/><rect x="310.89" y="172.71" width="34.54" height="34.54" fill="#fff2be"/><rect x="345.43" y="138.17" width="69.09" height="69.09" fill="#8bbcdf"/><path d="M 345.43 207.26 A 69.09 69.09 0 0 1  414.52 138.17 L 414.52 207.26" fill="#ffd119"/><rect x="414.51" y="138.17" width="69.09" height="69.09" fill="#ffe062"/><polygon points="414.51,138.17 483.6,138.17 414.51,207.26" fill="#9cc6e4"/><rect x="483.6" y="138.17" width="69.09" height="69.09" fill="#ffeea9"/><rect x="483.6" y="138.17" width="69.09" height="69.09" fill="#ffefb0"/><rect x="552.6857142857143" y="138.17142857142858" width="69.08571428571429" height="69.08571428571429" fill="#ffffff"/><rect x="552.69" y="138.17" width="34.54" height="34.54" fill="#ffe375"/><path d="M 552.69 138.17 A 34.54 34.54 0 0 1 587.23 172.70999999999998 L 552.69 172.70999999999998" fill="#9dc7e4"/><rect x="587.23" y="138.17" width="34.54" height="34.54" fill="#ffce0c"/><path d="M 587.23 172.70999999999998 A 34.54 34.54 0 0 1  621.77 138.17 L 621.77 172.70999999999998" fill="#84b8dd"/><rect x="552.69" y="172.71" width="34.54" height="34.54" fill="#ffe88b"/><path d="M 552.69 207.25 A 34.54 34.54 0 0 0 587.23 172.71 L 552.69 172.71" fill="#ffce0b"/><rect x="587.23" y="172.71" width="34.54" height="34.54" fill="#fff1b8"/><path d="M 587.23 172.71 A 34.54 34.54 0 0 0 621.77 207.25 L 621.77 172.71" fill="#ffea96"/><rect x="621.7714285714286" y="138.17142857142858" width="69.08571428571429" height="69.08571428571429" fill="#ffffff"/><rect x="621.77" y="138.17" width="34.54" height="34.54" fill="#3c8fc9"/><polygon points="656.31,138.17 656.31,172.70999999999998 621.77,172.70999999999998" fill="#c2dcee"/><rect x="656.31" y="138.17" width="34.54" height="34.54" fill="#ffcd07"/><polygon points="656.31,138.17 690.8499999999999,172.70999999999998 656.31,172.70999999999998" fill="#c9e0f0"/><rect x="621.77" y="172.71" width="34.54" height="34.54" fill="#ffe785"/><polygon points="621.77,172.71 656.31,172.71 621.77,207.25" fill="#fff2bc"/><rect x="656.31" y="172.71" width="34.54" height="34.54" fill="#1679bf"/><polygon points="656.31,172.71 690.8499999999999,172.71 690.8499999999999,207.25" fill="#589fd1"/><rect x="690.8571428571429" y="138.17142857142858" width="69.08571428571429" height="69.08571428571429" fill="#ffffff"/><rect x="690.86" y="138.17" width="34.54" height="34.54" fill="#ffdd53"/><path d="M 690.86 138.17 A 34.54 34.54 0 0 0 725.4 172.70999999999998 L 725.4 138.17" fill="#7db5db"/><rect x="725.4" y="138.17" width="34.54" height="34.54" fill="#ffe26d"/><path d="M 725.4 172.70999999999998 A 34.54 34.54 0 0 0 759.9399999999999 138.17 L 725.4 138.17" fill="#3189c6"/><rect x="690.86" y="172.71" width="34.54" height="34.54" fill="#fff0b6"/><path d="M 690.86 207.25 A 34.54 34.54 0 0 1  725.4 172.71 L 725.4 207.25" fill="#4c98ce"/><rect x="725.4" y="172.71" width="34.54" height="34.54" fill="#ffd735"/><path d="M 725.4 172.71 A 34.54 34.54 0 0 1 759.9399999999999 207.25 L 725.4 207.25" fill="#a7cce7"/><rect x="759.94" y="138.17" width="69.09" height="69.09" fill="#539cd0"/><rect x="759.94" y="138.17" width="69.09" height="69.09" fill="#ffe787"/><rect x="0" y="207.25714285714287" width="69.08571428571429" height="69.08571428571429" fill="#ffffff"/><rect x="0" y="207.26" width="34.54" height="34.54" fill="#ffdc52"/><path d="M 0 241.79999999999998 A 34.54 34.54 0 0 0 34.54 207.26 L 0 207.26" fill="#ffda48"/><rect x="34.54" y="207.26" width="34.54" height="34.54" fill="#ffe16a"/><path d="M 34.54 207.26 A 34.54 34.54 0 0 0 69.08 241.79999999999998 L 69.08 207.26" fill="#ffce08"/><rect x="0" y="241.8" width="34.54" height="34.54" fill="#ffe47a"/><path d="M 0 241.8 A 34.54 34.54 0 0 1 34.54 276.34000000000003 L 0 276.34000000000003" fill="#ffd013"/><rect x="34.54" y="241.8" width="34.54" height="34.54" fill="#b1d2e9"/><path d="M 34.54 276.34000000000003 A 34.54 34.54 0 0 1  69.08 241.8 L 69.08 276.34000000000003" fill="#ffe789"/><rect x="69.08571428571429" y="207.25714285714287" width="69.08571428571429" height="69.08571428571429" fill="#ffffff"/><rect x="69.09" y="207.26" width="34.54" height="34.54" fill="#ffdc52"/><polygon points="103.63,207.26 103.63,241.79999999999998 69.09,241.79999999999998" fill="#b3d4ea"/><rect x="103.63" y="207.26" width="34.54" height="34.54" fill="#ffdd57"/><polygon points="103.63,207.26 138.17,241.79999999999998 103.63,241.79999999999998" fill="#1076bd"/><rect x="69.09" y="241.8" width="34.54" height="34.54" fill="#4896cd"/><polygon points="69.09,241.8 103.63,241.8 103.63,276.34000000000003" fill="#2481c3"/><rect x="103.63" y="241.8" width="34.54" height="34.54" fill="#f1f7fb"/><polygon points="103.63,241.8 138.17,241.8 103.63,276.34000000000003" fill="#fff5cf"/><rect x="138.17" y="207.26" width="69.09" height="69.09" fill="#ffe477"/><polygon points="207.26,207.26 207.26,276.35 138.17,276.35" fill="#b9d7ec"/><rect x="207.25714285714287" y="207.25714285714287" width="69.08571428571429" height="69.08571428571429" fill="#ffffff"/><rect x="207.26" y="207.26" width="34.54" height="34.54" fill="#fffefb"/><polygon points="241.79999999999998,207.26 241.79999999999998,241.79999999999998 207.26,241.79999999999998" fill="#ffe26d"/><rect x="241.8" y="207.26" width="34.54" height="34.54" fill="#2984c4"/><polygon points="241.8,207.26 276.34000000000003,241.79999999999998 241.8,241.79999999999998" fill="#a4cae6"/><rect x="207.26" y="241.8" width="34.54" height="34.54" fill="#4695cc"/><polygon points="207.26,241.8 241.79999999999998,241.8 207.26,276.34000000000003" fill="#fff3c4"/><rect x="241.8" y="241.8" width="34.54" height="34.54" fill="#fff7d7"/><polygon points="241.8,241.8 276.34000000000003,241.8 276.34000000000003,276.34000000000003" fill="#ffd21e"/><rect x="276.34" y="207.26" width="69.09" height="69.09" fill="#e0edf6"/><rect x="276.34" y="207.26" width="69.09" height="69.09" fill="#5ca1d2"/><rect x="345.42857142857144" y="207.25714285714287" width="69.08571428571429" height="69.08571428571429" fill="#ffffff"/><rect x="345.43" y="207.26" width="34.54" height="34.54" fill="#ffe476"/><path d="M 345.43 207.26 A 34.54 34.54 0 0 0 379.97 241.79999999999998 L 379.97 207.26" fill="#fffae7"/><rect x="379.97" y="207.26" width="34.54" height="34.54" fill="#ffe88a"/><path d="M 379.97 241.79999999999998 A 34.54 34.54 0 0 0 414.51000000000005 207.26 L 379.97 207.26" fill="#a2c9e5"/><rect x="345.43" y="241.8" width="34.54" height="34.54" fill="#3088c6"/><path d="M 345.43 276.34000000000003 A 34.54 34.54 0 0 1  379.97 241.8 L 379.97 276.34000000000003" fill="#3a8dc9"/><rect x="379.97" y="241.8" width="34.54" height="34.54" fill="#a8cde7"/><path d="M 379.97 241.8 A 34.54 34.54 0 0 1 414.51000000000005 276.34000000000003 L 379.97 276.34000000000003" fill="#d4e6f3"/><rect x="414.51428571428573" y="207.25714285714287" width="69.08571428571429" height="69.08571428571429" fill="#ffffff"/><rect x="414.51" y="207.26" width="34.54" height="34.54" fill="#63a5d4"/><polygon points="449.05,207.26 449.05,241.79999999999998 414.51,241.79999999999998" fill="#fffefc"/><rect x="449.06" y="207.26" width="34.54" height="34.54" fill="#cfe3f2"/><polygon points="449.06,207.26 483.6,241.79999999999998 449.06,241.79999999999998" fill="#ffde5c"/><rect x="414.51" y="241.8" width="34.54" height="34.54" fill="#ffe26f"/><polygon points="414.51,241.8 449.05,241.8 449.05,276.34000000000003" fill="#f2f7fb"/><rect x="449.06" y="241.8" width="34.54" height="34.54" fill="#ffea98"/><polygon points="449.06,241.8 483.6,241.8 449.06,276.34000000000003" fill="#ffeda3"/><rect x="483.6" y="207.25714285714287" width="69.08571428571429" height="69.08571428571429" fill="#ffffff"/><rect x="483.6" y="207.26" width="34.54" height="34.54" fill="#6dabd7"/><polygon points="518.14,207.26 518.14,241.79999999999998 483.6,241.79999999999998" fill="#1578bf"/><rect x="518.14" y="207.26" width="34.54" height="34.54" fill="#daeaf5"/><polygon points="518.14,207.26 552.68,207.26 518.14,241.79999999999998" fill="#ffe169"/><rect x="483.6" y="241.8" width="34.54" height="34.54" fill="#ffe375"/><polygon points="483.6,241.8 518.14,241.8 518.14,276.34000000000003" fill="#e0edf7"/><rect x="518.14" y="241.8" width="34.54" height="34.54" fill="#ffefad"/><polygon points="518.14,241.8 552.68,276.34000000000003 518.14,276.34000000000003" fill="#ffd93f"/><rect x="552.69" y="207.26" width="69.09" height="69.09" fill="#ffcd03"/><rect x="552.69" y="207.26" width="69.09" height="69.09" fill="#fffffe"/><rect x="621.7714285714286" y="207.25714285714287" width="69.08571428571429" height="69.08571428571429" fill="#ffffff"/><rect x="621.77" y="207.26" width="34.54" height="34.54" fill="#ffd630"/><polygon points="656.31,207.26 656.31,241.79999999999998 621.77,241.79999999999998" fill="#f8fbfd"/><rect x="656.31" y="207.26" width="34.54" height="34.54" fill="#ffe88d"/><polygon points="656.31,207.26 690.8499999999999,241.79999999999998 656.31,241.79999999999998" fill="#1d7dc1"/><rect x="621.77" y="241.8" width="34.54" height="34.54" fill="#ffe57f"/><polygon points="621.77,241.8 656.31,241.8 621.77,276.34000000000003" fill="#b9d6ec"/><rect x="656.31" y="241.8" width="34.54" height="34.54" fill="#ffdc50"/><polygon points="656.31,241.8 690.8499999999999,241.8 690.8499999999999,276.34000000000003" fill="#ffd940"/><rect x="690.8571428571429" y="207.25714285714287" width="69.08571428571429" height="69.08571428571429" fill="#ffffff"/><rect x="690.86" y="207.26" width="34.54" height="34.54" fill="#559dd0"/><polygon points="725.4,207.26 725.4,241.79999999999998 690.86,241.79999999999998" fill="#ffd736"/><rect x="725.4" y="207.26" width="34.54" height="34.54" fill="#ffd52f"/><polygon points="725.4,207.26 759.9399999999999,207.26 725.4,241.79999999999998" fill="#6facd7"/><rect x="690.86" y="241.8" width="34.54" height="34.54" fill="#c7dfef"/><polygon points="690.86,241.8 725.4,241.8 725.4,276.34000000000003" fill="#a9cee7"/><rect x="725.4" y="241.8" width="34.54" height="34.54" fill="#fffae7"/><polygon points="725.4,241.8 759.9399999999999,276.34000000000003 725.4,276.34000000000003" fill="#ffe169"/><rect x="759.9428571428572" y="207.25714285714287" width="69.08571428571429" height="69.08571428571429" fill="#ffffff"/><rect x="759.94" y="207.26" width="34.54" height="34.54" fill="#ffe57f"/><path d="M 759.94 207.26 A 34.54 34.54 0 0 0 794.48 241.79999999999998 L 794.48 207.26" fill="#91c0e1"/><rect x="794.49" y="207.26" width="34.54" height="34.54" fill="#a8cde7"/><path d="M 794.49 241.79999999999998 A 34.54 34.54 0 0 0 829.03 207.26 L 794.49 207.26" fill="#ffd83c"/><rect x="759.94" y="241.8" width="34.54" height="34.54" fill="#3e90ca"/><path d="M 759.94 276.34000000000003 A 34.54 34.54 0 0 1  794.48 241.8 L 794.48 276.34000000000003" fill="#b1d2ea"/><rect x="794.49" y="241.8" width="34.54" height="34.54" fill="#579fd1"/><path d="M 794.49 241.8 A 34.54 34.54 0 0 1 829.03 276.34000000000003 L 794.49 276.34000000000003" fill="#ffd325"/><rect x="0" y="276.34" width="69.09" height="69.09" fill="#217fc2"/><rect x="0" y="276.34" width="69.09" height="69.09" fill="#2481c3"/><rect x="69.09" y="276.34" width="69.09" height="69.09" fill="#fff7d8"/><polygon points="69.09,276.34 138.18,345.42999999999995 69.09,345.42999999999995" fill="#cbe1f1"/><rect x="138.17142857142858" y="276.34285714285716" width="69.08571428571429" height="69.08571428571429" fill="#ffffff"/><rect x="138.17" y="276.34" width="34.54" height="34.54" fill="#4293cb"/><polygon points="172.70999999999998,276.34 172.70999999999998,310.88 138.17,310.88" fill="#ffcd07"/><rect x="172.71" y="276.34" width="34.54" height="34.54" fill="#4c98ce"/><polygon points="172.71,276.34 207.25,310.88 172.71,310.88" fill="#ffe990"/><rect x="138.17" y="310.89" width="34.54" height="34.54" fill="#fff2be"/><polygon points="138.17,310.89 172.70999999999998,310.89 138.17,345.43" fill="#4c98ce"/><rect x="172.71" y="310.89" width="34.54" height="34.54" fill="#fff5cc"/><polygon points="172.71,310.89 207.25,310.89 207.25,345.43" fill="#89bbde"/><rect x="207.26" y="276.34" width="69.09" height="69.09" fill="#e8f2f9"/><rect x="207.26" y="276.34" width="69.09" height="69.09" fill="#fff0b2"/><rect x="276.34285714285716" y="276.34285714285716" width="69.08571428571429" height="69.08571428571429" fill="#ffffff"/><rect x="276.34" y="276.34" width="34.54" height="34.54" fill="#96c2e2"/><circle cx="293.60999999999996" cy="293.60999999999996" r="17.27" fill="#fff9e2"/><rect x="310.89" y="276.34" width="34.54" height="34.54" fill="#ffdd54"/><rect x="310.89" y="276.34" width="34.54" height="34.54" fill="#b3d3ea"/><rect x="276.34" y="310.89" width="34.54" height="34.54" fill="#569ed0"/><circle cx="293.60999999999996" cy="328.15999999999997" r="17.27" fill="#569ed0"/><rect x="310.89" y="310.89" width="34.54" height="34.54" fill="#fff8db"/><rect x="310.89" y="310.89" width="34.54" height="34.54" fill="#ffe57b"/><rect x="345.42857142857144" y="276.34285714285716" width="69.08571428571429" height="69.08571428571429" fill="#ffffff"/><rect x="345.43" y="276.34" width="34.54" height="34.54" fill="#cbe1f1"/><path d="M 345.43 276.34 A 34.54 34.54 0 0 1 379.97 310.88 L 345.43 310.88" fill="#ffda46"/><rect x="379.97" y="276.34" width="34.54" height="34.54" fill="#3c8fc9"/><path d="M 379.97 310.88 A 34.54 34.54 0 0 1  414.51000000000005 276.34 L 414.51000000000005 310.88" fill="#daeaf5"/><rect x="345.43" y="310.89" width="34.54" height="34.54" fill="#ffd941"/><path d="M 345.43 345.43 A 34.54 34.54 0 0 0 379.97 310.89 L 345.43 310.89" fill="#85b9dd"/><rect x="379.97" y="310.89" width="34.54" height="34.54" fill="#f2f7fb"/><path d="M 379.97 310.89 A 34.54 34.54 0 0 0 414.51000000000005 345.43 L 414.51000000000005 310.89" fill="#ffe682"/><rect x="414.51" y="276.34" width="69.09" height="69.09" fill="#ffe168"/><path d="M 414.51 276.34 A 69.09 69.09 0 0 1  483.6 345.42999999999995 L 414.51 276.34 A 69.09 69.09 0 0 0 483.6 345.42999999999995" fill="#c1dbee"/><rect x="483.6" y="276.34" width="69.09" height="69.09" fill="#579fd1"/><rect x="483.6" y="276.34" width="69.09" height="69.09" fill="#f5fafc"/><rect x="552.6857142857143" y="276.34285714285716" width="69.08571428571429" height="69.08571428571429" fill="#ffffff"/><rect x="552.69" y="276.34" width="34.54" height="34.54" fill="#1679bf"/><path d="M 552.69 310.88 A 34.54 34.54 0 0 1 587.23 276.34 L 587.23 284.97499999999997 A 25.905 25.905 0 0 0 561.325 310.88" fill="#fff3c4"/><rect x="587.23" y="276.34" width="34.54" height="34.54" fill="#61a4d4"/><path d="M 587.23 276.34 A 34.54 34.54 0 0 1 621.77 310.88 L 613.135 310.88 A 25.905 25.905 0 0 0 587.23 284.97499999999997" fill="#ffd014"/><rect x="552.69" y="310.89" width="34.54" height="34.54" fill="#fff8dc"/><path d="M 552.69 310.89 A 34.54 34.54 0 0 0 587.23 345.43 L 587.23 336.79499999999996 A 25.905 25.905 0 0 1 561.325 310.89" fill="#1679bf"/><rect x="587.23" y="310.89" width="34.54" height="34.54" fill="#ffda45"/><path d="M 587.23 345.43 A 34.54 34.54 0 0 0 621.77 310.89 L 613.135 310.89 A 25.905 25.905 0 0 1 587.23 336.79499999999996" fill="#2682c3"/><rect x="621.77" y="276.34" width="69.09" height="69.09" fill="#ffd52c"/><polygon points="621.77,276.34 690.86,276.34 690.86,345.42999999999995" fill="#fffbea"/><rect x="690.86" y="276.34" width="69.09" height="69.09" fill="#6caad7"/><rect x="690.86" y="276.34" width="69.09" height="69.09" fill="#b7d6eb"/><rect x="759.9428571428572" y="276.34285714285716" width="69.08571428571429" height="69.08571428571429" fill="#ffffff"/><rect x="759.94" y="276.34" width="34.54" height="34.54" fill="#ffe064"/><path d="M 759.94 276.34 A 34.54 34.54 0 0 1 794.48 310.88 L 759.94 310.88" fill="#3188c6"/><rect x="794.49" y="276.34" width="34.54" height="34.54" fill="#78b2da"/><path d="M 794.49 310.88 A 34.54 34.54 0 0 1  829.03 276.34 L 829.03 310.88" fill="#b8d6ec"/><rect x="759.94" y="310.89" width="34.54" height="34.54" fill="#8dbde0"/><path d="M 759.94 345.43 A 34.54 34.54 0 0 0 794.48 310.89 L 759.94 310.89" fill="#e4eff8"/><rect x="794.49" y="310.89" width="34.54" height="34.54" fill="#d5e7f4"/><path d="M 794.49 310.89 A 34.54 34.54 0 0 0 829.03 345.43 L 829.03 310.89" fill="#ffe476"/><rect x="0" y="345.43" width="69.09" height="69.09" fill="#4e99ce"/><polygon points="0,345.43 69.09,345.43 0,414.52" fill="#ffdb4a"/><rect x="69.08571428571429" y="345.42857142857144" width="69.08571428571429" height="69.08571428571429" fill="#ffffff"/><rect x="69.09" y="345.43" width="34.54" height="34.54" fill="#4493cc"/><path d="M 69.09 379.97 A 34.54 34.54 0 0 1 103.63 345.43 L 103.63 354.065 A 25.905 25.905 0 0 0 77.72500000000001 379.97" fill="#ffeca1"/><rect x="103.63" y="345.43" width="34.54" height="34.54" fill="#ffeca1"/><path d="M 103.63 345.43 A 34.54 34.54 0 0 1 138.17 379.97 L 129.535 379.97 A 25.905 25.905 0 0 0 103.63 354.065" fill="#4694cc"/><rect x="69.09" y="379.97" width="34.54" height="34.54" fill="#fffae6"/><path d="M 69.09 379.97 A 34.54 34.54 0 0 0 103.63 414.51000000000005 L 103.63 405.875 A 25.905 25.905 0 0 1 77.72500000000001 379.97" fill="#4996cd"/><rect x="103.63" y="379.97" width="34.54" height="34.54" fill="#4292cb"/><path d="M 103.63 414.51000000000005 A 34.54 34.54 0 0 0 138.17 379.97 L 129.535 379.97 A 25.905 25.905 0 0 1 103.63 405.875" fill="#4b97cd"/><rect x="138.17" y="345.43" width="69.09" height="69.09" fill="#ffefae"/><path d="M 138.17 345.43 A 69.09 69.09 0 0 0 207.26 414.52 L 207.26 345.43" fill="#70add8"/><rect x="207.25714285714287" y="345.42857142857144" width="69.08571428571429" height="69.08571428571429" fill="#ffffff"/><rect x="207.26" y="345.43" width="34.54" height="34.54" fill="#eff6fb"/><path d="M 207.26 345.43 A 34.54 34.54 0 0 0 241.79999999999998 379.97 L 241.79999999999998 345.43" fill="#62a5d4"/><rect x="241.8" y="345.43" width="34.54" height="34.54" fill="#ffcc01"/><path d="M 241.8 379.97 A 34.54 34.54 0 0 0 276.34000000000003 345.43 L 241.8 345.43" fill="#e2eff7"/><rect x="207.26" y="379.97" width="34.54" height="34.54" fill="#ffe98f"/><path d="M 207.26 414.51000000000005 A 34.54 34.54 0 0 1  241.79999999999998 379.97 L 241.79999999999998 414.51000000000005" fill="#fdfefe"/><rect x="241.8" y="379.97" width="34.54" height="34.54" fill="#ffce08"/><path d="M 241.8 379.97 A 34.54 34.54 0 0 1 276.34000000000003 414.51000000000005 L 241.8 414.51000000000005" fill="#5ca1d2"/><rect x="276.34" y="345.43" width="69.09" height="69.09" fill="#fff8da"/><polygon points="276.34,345.43 345.42999999999995,345.43 345.42999999999995,414.52" fill="#fff5cf"/><rect x="345.42857142857144" y="345.42857142857144" width="69.08571428571429" height="69.08571428571429" fill="#ffffff"/><rect x="345.43" y="345.43" width="34.54" height="34.54" fill="#ffe169"/><path d="M 345.43 379.97 A 34.54 34.54 0 0 1  379.97 345.43 L 379.97 379.97" fill="#569ed1"/><rect x="379.97" y="345.43" width="34.54" height="34.54" fill="#ffd83b"/><path d="M 379.97 345.43 A 34.54 34.54 0 0 1 414.51000000000005 379.97 L 379.97 379.97" fill="#fffbeb"/><rect x="345.43" y="379.97" width="34.54" height="34.54" fill="#ffd52f"/><path d="M 345.43 379.97 A 34.54 34.54 0 0 0 379.97 414.51000000000005 L 379.97 379.97" fill="#b6d5eb"/><rect x="379.97" y="379.97" width="34.54" height="34.54" fill="#9bc6e4"/><path d="M 379.97 414.51000000000005 A 34.54 34.54 0 0 0 414.51000000000005 379.97 L 379.97 379.97" fill="#97c3e2"/><rect x="414.51428571428573" y="345.42857142857144" width="69.08571428571429" height="69.08571428571429" fill="#ffffff"/><rect x="414.51" y="345.43" width="34.54" height="34.54" fill="#d0e4f2"/><polygon points="449.05,345.43 449.05,379.97 414.51,379.97" fill="#ffe88d"/><rect x="449.06" y="345.43" width="34.54" height="34.54" fill="#ffe26e"/><polygon points="449.06,345.43 483.6,379.97 449.06,379.97" fill="#b4d4ea"/><rect x="414.51" y="379.97" width="34.54" height="34.54" fill="#cde2f1"/><polygon points="414.51,379.97 449.05,379.97 414.51,414.51000000000005" fill="#2280c2"/><rect x="449.06" y="379.97" width="34.54" height="34.54" fill="#ffe47a"/><polygon points="449.06,379.97 483.6,379.97 483.6,414.51000000000005" fill="#ffefae"/><rect x="483.6" y="345.42857142857144" width="69.08571428571429" height="69.08571428571429" fill="#ffffff"/><rect x="483.6" y="345.43" width="34.54" height="34.54" fill="#fffcef"/><path d="M 483.6 379.97 A 34.54 34.54 0 0 1  518.14 345.43 L 518.14 379.97" fill="#197bc0"/><rect x="518.14" y="345.43" width="34.54" height="34.54" fill="#fff6d2"/><path d="M 518.14 345.43 A 34.54 34.54 0 0 1 552.68 379.97 L 518.14 379.97" fill="#1a7bc0"/><rect x="483.6" y="379.97" width="34.54" height="34.54" fill="#6baad6"/><path d="M 483.6 379.97 A 34.54 34.54 0 0 0 518.14 414.51000000000005 L 518.14 379.97" fill="#c9e0f0"/><rect x="518.14" y="379.97" width="34.54" height="34.54" fill="#ffeb99"/><path d="M 518.14 414.51000000000005 A 34.54 34.54 0 0 0 552.68 379.97 L 518.14 379.97" fill="#ffdb49"/><rect x="552.6857142857143" y="345.42857142857144" width="69.08571428571429" height="69.08571428571429" fill="#ffffff"/><rect x="552.69" y="345.43" width="34.54" height="34.54" fill="#ffeda3"/><path d="M 552.69 345.43 A 34.54 34.54 0 0 1 587.23 379.97 L 552.69 379.97" fill="#3d90ca"/><rect x="587.23" y="345.43" width="34.54" height="34.54" fill="#8cbddf"/><path d="M 587.23 379.97 A 34.54 34.54 0 0 1  621.77 345.43 L 621.77 379.97" fill="#ffdf5e"/><rect x="552.69" y="379.97" width="34.54" height="34.54" fill="#2682c3"/><path d="M 552.69 414.51000000000005 A 34.54 34.54 0 0 0 587.23 379.97 L 552.69 379.97" fill="#ffe372"/><rect x="587.23" y="379.97" width="34.54" height="34.54" fill="#72aed8"/><path d="M 587.23 379.97 A 34.54 34.54 0 0 0 621.77 414.51000000000005 L 621.77 379.97" fill="#ffeeab"/><rect x="621.7714285714286" y="345.42857142857144" width="69.08571428571429" height="69.08571428571429" fill="#ffffff"/><rect x="621.77" y="345.43" width="34.54" height="34.54" fill="#75b0d9"/><polygon points="656.31,345.43 656.31,379.97 621.77,379.97" fill="#9dc7e4"/><rect x="656.31" y="345.43" width="34.54" height="34.54" fill="#ffd426"/><polygon points="656.31,345.43 690.8499999999999,379.97 656.31,379.97" fill="#ffd943"/><rect x="621.77" y="379.97" width="34.54" height="34.54" fill="#4f9ace"/><polygon points="621.77,379.97 656.31,379.97 621.77,414.51000000000005" fill="#fff6d4"/><rect x="656.31" y="379.97" width="34.54" height="34.54" fill="#c3dcee"/><polygon points="656.31,379.97 690.8499999999999,379.97 690.8499999999999,414.51000000000005" fill="#d8e9f4"/><rect x="690.8571428571429" y="345.42857142857144" width="69.08571428571429" height="69.08571428571429" fill="#ffffff"/><rect x="690.86" y="345.43" width="34.54" height="34.54" fill="#7fb6dc"/><path d="M 690.86 345.43 A 34.54 34.54 0 0 0 725.4 379.97 L 725.4 345.43" fill="#fffbea"/><rect x="725.4" y="345.43" width="34.54" height="34.54" fill="#1478bf"/><path d="M 725.4 379.97 A 34.54 34.54 0 0 0 759.9399999999999 345.43 L 725.4 345.43" fill="#fff9e3"/><rect x="690.86" y="379.97" width="34.54" height="34.54" fill="#fff5cd"/><path d="M 690.86 414.51000000000005 A 34.54 34.54 0 0 1  725.4 379.97 L 725.4 414.51000000000005" fill="#fffefc"/><rect x="725.4" y="379.97" width="34.54" height="34.54" fill="#65a7d5"/><path d="M 725.4 379.97 A 34.54 34.54 0 0 1 759.9399999999999 414.51000000000005 L 725.4 414.51000000000005" fill="#fbfcfe"/><rect x="759.9428571428572" y="345.42857142857144" width="69.08571428571429" height="69.08571428571429" fill="#ffffff"/><rect x="759.94" y="345.43" width="34.54" height="34.54" fill="#71aed8"/><path d="M 759.94 379.97 A 34.54 34.54 0 0 0 794.48 345.43 L 759.94 345.43" fill="#ffda45"/><rect x="794.49" y="345.43" width="34.54" height="34.54" fill="#ffeeaa"/><path d="M 794.49 345.43 A 34.54 34.54 0 0 0 829.03 379.97 L 829.03 345.43" fill="#8fbfe0"/><rect x="759.94" y="379.97" width="34.54" height="34.54" fill="#ffe57b"/><path d="M 759.94 379.97 A 34.54 34.54 0 0 1 794.48 414.51000000000005 L 759.94 414.51000000000005" fill="#fff6d1"/><rect x="794.49" y="379.97" width="34.54" height="34.54" fill="#ffd324"/><path d="M 794.49 414.51000000000005 A 34.54 34.54 0 0 1  829.03 379.97 L 829.03 414.51000000000005" fill="#2582c3"/><rect x="0" y="414.51" width="69.09" height="69.09" fill="#ffd83c"/><rect x="0" y="414.51" width="69.09" height="69.09" fill="#ffd11a"/><rect x="69.09" y="414.51" width="69.09" height="69.09" fill="#ffefaf"/><path d="M 69.09 483.6 A 69.09 69.09 0 0 1  138.18 414.51 L 69.09 483.6 A 69.09 69.09 0 0 0 138.18 414.51" fill="#fff6d3"/><rect x="138.17" y="414.51" width="69.09" height="69.09" fill="#5ea2d3"/><path d="M 138.17 483.6 A 69.09 69.09 0 0 1  207.26 414.51 L 207.26 483.6" fill="#ffe684"/><rect x="207.26" y="414.51" width="69.09" height="69.09" fill="#569ed0"/><rect x="207.26" y="414.51" width="69.09" height="69.09" fill="#f2f8fb"/><rect x="276.34285714285716" y="414.51428571428573" width="69.08571428571429" height="69.08571428571429" fill="#ffffff"/><rect x="276.34" y="414.51" width="34.54" height="34.54" fill="#ffe681"/><path d="M 276.34 449.05 A 34.54 34.54 0 0 0 310.88 414.51 L 276.34 414.51" fill="#ffd013"/><rect x="310.89" y="414.51" width="34.54" height="34.54" fill="#579ed1"/><path d="M 310.89 414.51 A 34.54 34.54 0 0 0 345.43 449.05 L 345.43 414.51" fill="#d0e4f2"/><rect x="276.34" y="449.06" width="34.54" height="34.54" fill="#dfedf6"/><path d="M 276.34 449.06 A 34.54 34.54 0 0 1 310.88 483.6 L 276.34 483.6" fill="#fff3c4"/><rect x="310.89" y="449.06" width="34.54" height="34.54" fill="#e2eef7"/><path d="M 310.89 483.6 A 34.54 34.54 0 0 1  345.43 449.06 L 345.43 483.6" fill="#ffec9f"/><rect x="345.42857142857144" y="414.51428571428573" width="69.08571428571429" height="69.08571428571429" fill="#ffffff"/><rect x="345.43" y="414.51" width="34.54" height="34.54" fill="#ffd83b"/><path d="M 345.43 414.51 A 34.54 34.54 0 0 1 379.97 449.05 L 345.43 449.05" fill="#ffefad"/><rect x="379.97" y="414.51" width="34.54" height="34.54" fill="#a8cde7"/><path d="M 379.97 449.05 A 34.54 34.54 0 0 1  414.51000000000005 414.51 L 414.51000000000005 449.05" fill="#ffeb9b"/><rect x="345.43" y="449.06" width="34.54" height="34.54" fill="#a4cbe6"/><path d="M 345.43 483.6 A 34.54 34.54 0 0 0 379.97 449.06 L 345.43 449.06" fill="#d0e4f2"/><rect x="379.97" y="449.06" width="34.54" height="34.54" fill="#fff3c5"/><path d="M 379.97 449.06 A 34.54 34.54 0 0 0 414.51000000000005 483.6 L 414.51000000000005 449.06" fill="#fcfefe"/><rect x="414.51" y="414.51" width="69.09" height="69.09" fill="#4c98ce"/><path d="M 414.51 483.6 A 69.09 69.09 0 0 0 483.6 414.51 L 414.51 414.51" fill="#9cc6e4"/><rect x="483.6" y="414.51" width="69.09" height="69.09" fill="#ffea97"/><rect x="483.6" y="414.51" width="69.09" height="69.09" fill="#3a8dc9"/><rect x="552.69" y="414.51" width="69.09" height="69.09" fill="#90bfe0"/><path d="M 552.69 414.51 A 69.09 69.09 0 0 1  621.7800000000001 483.6 L 552.69 414.51 A 69.09 69.09 0 0 0 621.7800000000001 483.6" fill="#97c3e3"/><rect x="621.7714285714286" y="414.51428571428573" width="69.08571428571429" height="69.08571428571429" fill="#ffffff"/><rect x="621.77" y="414.51" width="34.54" height="34.54" fill="#ffd52d"/><path d="M 621.77 414.51 A 34.54 34.54 0 0 0 656.31 449.05 L 656.31 414.51" fill="#96c2e2"/><rect x="656.31" y="414.51" width="34.54" height="34.54" fill="#0f75bd"/><path d="M 656.31 449.05 A 34.54 34.54 0 0 0 690.8499999999999 414.51 L 656.31 414.51" fill="#fffbed"/><rect x="621.77" y="449.06" width="34.54" height="34.54" fill="#8fbee0"/><path d="M 621.77 483.6 A 34.54 34.54 0 0 1  656.31 449.06 L 656.31 483.6" fill="#ffeda3"/><rect x="656.31" y="449.06" width="34.54" height="34.54" fill="#ffe47a"/><path d="M 656.31 449.06 A 34.54 34.54 0 0 1 690.8499999999999 483.6 L 656.31 483.6" fill="#fff3c3"/><rect x="690.8571428571429" y="414.51428571428573" width="69.08571428571429" height="69.08571428571429" fill="#ffffff"/><rect x="690.86" y="414.51" width="34.54" height="34.54" fill="#f9fcfd"/><polygon points="725.4,414.51 725.4,449.05 690.86,449.05" fill="#fff1bb"/><rect x="725.4" y="414.51" width="34.54" height="34.54" fill="#fff0b3"/><polygon points="725.4,414.51 759.9399999999999,449.05 725.4,449.05" fill="#fffae8"/><rect x="690.86" y="449.06" width="34.54" height="34.54" fill="#4594cc"/><polygon points="690.86,449.06 725.4,449.06 725.4,483.6" fill="#f1f7fb"/><rect x="725.4" y="449.06" width="34.54" height="34.54" fill="#9cc6e4"/><polygon points="725.4,449.06 759.9399999999999,449.06 725.4,483.6" fill="#ffd52b"/><rect x="759.94" y="414.51" width="69.09" height="69.09" fill="#ffe57f"/><polygon points="829.0300000000001,414.51 829.0300000000001,483.6 759.94,483.6" fill="#ffd42a"/></g></svg>